<svg width="48" height="48" viewBox="0 0 48 48" fill="none" xmlns="http://www.w3.org/2000/svg">
<circle cx="23.6325" cy="23.6315" r="23.6315" fill="white"/>
<path d="M30.3675 23.632C30.3688 23.944 30.2881 24.2508 30.1334 24.5217C29.9788 24.7926 29.7556 25.018 29.4863 25.1755L19.5915 31.0293C19.3169 31.1943 19.0027 31.2816 18.6823 31.2819C18.3691 31.2789 18.0619 31.1958 17.7899 31.0405C17.5165 30.884 17.2897 30.6575 17.1328 30.3842C16.976 30.111 16.8948 29.8009 16.8975 29.4859V17.7782C16.8996 17.464 16.9841 17.1558 17.1426 16.8844C17.3011 16.613 17.528 16.388 17.8007 16.2318C18.0733 16.0756 18.3822 15.9936 18.6965 15.9941C19.0108 15.9947 19.3194 16.0776 19.5915 16.2348L29.4976 22.0886C29.7648 22.2475 29.9857 22.4735 30.1383 22.7443C30.2909 23.0151 30.37 23.3212 30.3675 23.632Z" fill="#330F6F"/>
</svg>
