<svg width="50" height="50" viewBox="0 0 50 50" fill="none" xmlns="http://www.w3.org/2000/svg">
<circle cx="25" cy="25" r="25" fill="white"/>
<path d="M32.1251 25.0001C32.1265 25.3301 32.0411 25.6547 31.8775 25.9413C31.7139 26.2278 31.4778 26.4664 31.1929 26.6329L20.7251 32.8257C20.4346 33.0003 20.1021 33.0927 19.7632 33.0929C19.4319 33.0898 19.1069 33.0019 18.8191 32.8376C18.5299 32.672 18.2899 32.4324 18.124 32.1433C17.9581 31.8543 17.8722 31.5262 17.8751 31.1929V18.8073C17.8773 18.4749 17.9667 18.1488 18.1343 17.8617C18.302 17.5746 18.5421 17.3366 18.8305 17.1713C19.119 17.0061 19.4458 16.9194 19.7782 16.9199C20.1107 16.9205 20.4372 17.0083 20.7251 17.1745L31.2048 23.3673C31.4874 23.5354 31.7211 23.7745 31.8826 24.061C32.0441 24.3475 32.1277 24.6713 32.1251 25.0001Z" fill="#FF610F"/>
</svg>
